<svg width="51" height="51" viewBox="0 0 51 51" fill="none" xmlns="http://www.w3.org/2000/svg">
<g filter="url(#filter0_d_7_1479)">
<path d="M9.73888 36.8073C7.55013 34.4825 6.375 31.8752 6.375 27.6485C6.375 20.211 11.5961 13.5449 19.1887 10.249L21.0864 13.1773C13.9995 17.0108 12.614 21.9854 12.0615 25.1219C13.2026 24.5311 14.6965 24.325 16.1606 24.461C19.9941 24.8159 23.0159 27.963 23.0159 31.8752C23.0159 33.8477 22.2323 35.7395 20.8375 37.1343C19.4427 38.5291 17.5509 39.3127 15.5784 39.3127C13.2982 39.3127 11.118 38.2714 9.73888 36.8073ZM30.9889 36.8073C28.8001 34.4825 27.625 31.8752 27.625 27.6485C27.625 20.211 32.8461 13.5449 40.4388 10.249L42.3364 13.1773C35.2495 17.0108 33.864 21.9854 33.3115 25.1219C34.4526 24.5311 35.9465 24.325 37.4106 24.461C41.2441 24.8159 44.2659 27.963 44.2659 31.8752C44.2659 33.8477 43.4823 35.7395 42.0875 37.1343C40.6927 38.5291 38.8009 39.3127 36.8284 39.3127C34.5482 39.3127 32.368 38.2714 30.9889 36.8073Z" fill="#DFEAFC"/>
</g>
<defs>
<filter id="filter0_d_7_1479" x="-4" y="0" width="59" height="59" filterUnits="userSpaceOnUse" color-interpolation-filters="sRGB">
<feFlood flood-opacity="0" result="BackgroundImageFix"/>
<feColorMatrix in="SourceAlpha" type="matrix" values="0 0 0 0 0 0 0 0 0 0 0 0 0 0 0 0 0 0 127 0" result="hardAlpha"/>
<feOffset dy="4"/>
<feGaussianBlur stdDeviation="2"/>
<feComposite in2="hardAlpha" operator="out"/>
<feColorMatrix type="matrix" values="0 0 0 0 0 0 0 0 0 0 0 0 0 0 0 0 0 0 0.25 0"/>
<feBlend mode="normal" in2="BackgroundImageFix" result="effect1_dropShadow_7_1479"/>
<feBlend mode="normal" in="SourceGraphic" in2="effect1_dropShadow_7_1479" result="shape"/>
</filter>
</defs>
</svg>
