<svg width="110" height="110" viewBox="0 0 110 110" fill="none" xmlns="http://www.w3.org/2000/svg">
<g filter="url(#filter0_d_21_20)">
<path d="M29 47C29 37.0589 37.0589 29 47 29H63C72.9411 29 81 37.0589 81 47V63C81 72.9411 72.9411 81 63 81H47C37.0589 81 29 72.9411 29 63V47Z" fill="white"/>
</g>
<path d="M48.5904 48.257L56.1633 56L54.7804 57.414L51.4101 53.968C50.9771 54.7185 50.7957 55.5931 50.8934 56.4587C50.9911 57.3243 51.3626 58.1336 51.9514 58.7636C52.5402 59.3935 53.314 59.8097 54.1553 59.9488C54.9966 60.0879 55.8593 59.9423 56.6122 59.5341C57.3652 59.126 57.9672 58.4776 58.3267 57.6876C58.6863 56.8976 58.7837 56.0092 58.6041 55.1574C58.4246 54.3056 57.9779 53.537 57.332 52.9686C56.6862 52.4001 55.8764 52.0628 55.0259 52.008L53.2605 50.203C54.5948 49.8372 56.0125 49.9643 57.2641 50.5621C58.5157 51.1599 59.5209 52.19 60.1028 53.4711C60.6846 54.7521 60.8058 56.202 60.445 57.5654C60.0842 58.9288 59.2645 60.1184 58.1302 60.9246C56.996 61.7309 55.6199 62.1022 54.2443 61.9731C52.8686 61.8441 51.5816 61.223 50.6098 60.2191C49.638 59.2153 49.0437 57.8931 48.9316 56.4853C48.8195 55.0775 49.1967 53.6744 49.9968 52.523L48.5992 51.094C47.4329 52.6314 46.8545 54.5506 46.9723 56.4925C47.09 58.4344 47.8959 60.2659 49.2391 61.6441C50.5823 63.0223 52.3707 63.8528 54.2695 63.9802C56.1683 64.1075 58.0475 63.5229 59.5552 62.3359C61.0629 61.1488 62.0959 59.4407 62.4607 57.5311C62.8255 55.6216 62.4973 53.6415 61.5373 51.9616C60.5773 50.2817 59.0515 49.017 57.2454 48.4043C55.4393 47.7916 53.4767 47.8729 51.725 48.633L50.256 47.132C51.6524 46.386 53.2049 45.9976 54.7804 46C60.1821 46 64.5608 50.477 64.5608 56C64.5608 61.523 60.1821 66 54.7804 66C49.3787 66 45 61.523 45 56C44.9985 54.5178 45.32 53.0538 45.941 51.7145C46.5621 50.3751 47.4671 49.194 48.5904 48.257Z" fill="#BFBFBF"/>
<defs>
<filter id="filter0_d_21_20" x="0" y="0" width="110" height="110" filterUnits="userSpaceOnUse" color-interpolation-filters="sRGB">
<feFlood flood-opacity="0" result="BackgroundImageFix"/>
<feColorMatrix in="SourceAlpha" type="matrix" values="0 0 0 0 0 0 0 0 0 0 0 0 0 0 0 0 0 0 127 0" result="hardAlpha"/>
<feOffset/>
<feGaussianBlur stdDeviation="14.5"/>
<feColorMatrix type="matrix" values="0 0 0 0 0.266667 0 0 0 0 0.345098 0 0 0 0 0.564706 0 0 0 0.12 0"/>
<feBlend mode="normal" in2="BackgroundImageFix" result="effect1_dropShadow_21_20"/>
<feBlend mode="normal" in="SourceGraphic" in2="effect1_dropShadow_21_20" result="shape"/>
</filter>
</defs>
</svg>
